<svg width="48" height="48" viewBox="0 0 48 48" fill="none" xmlns="http://www.w3.org/2000/svg">
<circle cx="24" cy="24" r="24" fill="#EDF3FF"/>
<g clip-path="url(#clip0_36_381)">
<path d="M26.66 12.3333C27.1497 12.3335 27.627 12.4877 28.0242 12.7741C28.4214 13.0606 28.7184 13.4647 28.8732 13.9293L29.5067 15.8333H33.3333C33.6428 15.8333 33.9395 15.9563 34.1583 16.1751C34.3771 16.3938 34.5 16.6906 34.5 17C34.5 17.3094 34.3771 17.6062 34.1583 17.825C33.9395 18.0438 33.6428 18.1667 33.3333 18.1667L33.3298 18.2495L32.3183 32.4163C32.2552 33.2991 31.86 34.1251 31.2124 34.7282C30.5647 35.3312 29.7126 35.6666 28.8277 35.6667H19.1723C18.2874 35.6666 17.4353 35.3312 16.7876 34.7282C16.14 34.1251 15.7448 33.2991 15.6817 32.4163L14.6702 18.2483C14.6681 18.2212 14.6669 18.1939 14.6667 18.1667C14.3572 18.1667 14.0605 18.0438 13.8417 17.825C13.6229 17.6062 13.5 17.3094 13.5 17C13.5 16.6906 13.6229 16.3938 13.8417 16.1751C14.0605 15.9563 14.3572 15.8333 14.6667 15.8333H18.4933L19.1268 13.9293C19.2816 13.4645 19.5788 13.0602 19.9763 12.7738C20.3737 12.4873 20.8512 12.3332 21.3412 12.3333H26.66ZM30.9965 18.1667H17.0035L18.0092 32.2495C18.0301 32.5437 18.1617 32.8191 18.3776 33.0202C18.5934 33.2213 18.8773 33.3332 19.1723 33.3333H28.8277C29.1227 33.3332 29.4066 33.2213 29.6224 33.0202C29.8383 32.8191 29.9699 32.5437 29.9908 32.2495L30.9965 18.1667ZM21.6667 21.6667C21.9524 21.6667 22.2282 21.7716 22.4418 21.9615C22.6553 22.1514 22.7917 22.4131 22.8252 22.6968L22.8333 22.8333V28.6667C22.833 28.964 22.7191 29.25 22.515 29.4663C22.3109 29.6825 22.0319 29.8126 21.735 29.83C21.4382 29.8475 21.1459 29.7509 20.9179 29.56C20.6898 29.3692 20.5433 29.0985 20.5082 28.8032L20.5 28.6667V22.8333C20.5 22.5239 20.6229 22.2272 20.8417 22.0084C21.0605 21.7896 21.3572 21.6667 21.6667 21.6667ZM26.3333 21.6667C26.6428 21.6667 26.9395 21.7896 27.1583 22.0084C27.3771 22.2272 27.5 22.5239 27.5 22.8333V28.6667C27.5 28.9761 27.3771 29.2728 27.1583 29.4916C26.9395 29.7104 26.6428 29.8333 26.3333 29.8333C26.0239 29.8333 25.7272 29.7104 25.5084 29.4916C25.2896 29.2728 25.1667 28.9761 25.1667 28.6667V22.8333C25.1667 22.5239 25.2896 22.2272 25.5084 22.0084C25.7272 21.7896 26.0239 21.6667 26.3333 21.6667ZM26.66 14.6667H21.34L20.9515 15.8333H27.0485L26.66 14.6667Z" fill="#4942E4"/>
</g>
<defs>
<clipPath id="clip0_36_381">
<rect width="28" height="28" fill="white" transform="translate(10 10)"/>
</clipPath>
</defs>
</svg>
